<svg xmlns="http://www.w3.org/2000/svg" style="display: none;"><symbol id="icon-view-hide" viewBox="0 0 48 48"><title>view hide</title><g class="nc-icon-wrapper"><g class="nc-int-icon js-nc-int-icon" fill="currentColor" stroke="none"><g class="nc-int-icon-a" fill="currentColor" stroke="none"><path d="M46.424,22.162C43.458,17.9,35.336,8,24,8,12.565,8,4.5,17.911,1.566,22.176a3.235,3.235,0,0,0,.009,3.648h0C4.537,30.087,12.65,40,24,40c11.246,0,19.42-9.9,22.414-14.164A3.228,3.228,0,0,0,46.424,22.162ZM24,33a9,9,0,1,1,9-9A9,9,0,0,1,24,33Z" fill="currentColor" stroke="none"></path></g><g class="nc-int-icon-b" fill="currentColor" stroke="none"><path d="M38.576,13.667l-6.46,6.459A8.984,8.984,0,0,1,20.128,32.114l-5.556,5.557A20.967,20.967,0,0,0,24,40c11.246,0,19.421-9.9,22.414-14.164a3.228,3.228,0,0,0,.007-3.674A41.736,41.736,0,0,0,38.576,13.667Z" fill="currentColor" stroke="none"></path><path d="M1.575,25.825a41.617,41.617,0,0,0,7.849,8.509l6.463-6.463A8.984,8.984,0,0,1,27.873,15.884l5.555-5.554A20.947,20.947,0,0,0,24,8C12.564,8,4.5,17.911,1.565,22.176a3.237,3.237,0,0,0,.009,3.648Z" fill="currentColor" stroke="none"></path><path d="M4,45a1,1,0,0,1-.707-1.707l40-40a1,1,0,1,1,1.414,1.414l-40,40A1,1,0,0,1,4,45Z" stroke="none"></path></g></g><style fill="currentColor" stroke="none">.nc-int-icon{position:relative;}.nc-int-icon-b{position: absolute;top: calc(50% - 0.5em);left: calc(50% - 0.5em);opacity: 0;}.nc-int-icon-state-b .nc-int-icon-a{opacity: 0;}.nc-int-icon-state-b .nc-int-icon-b{opacity: 1;}</style><script fill="currentColor" stroke="none">function initIntIcon(i){if(i.classList.contains("js-nc-int-icon-loaded")) return;i.classList.add("js-nc-int-icon-loaded");i.closest("svg").addEventListener("click",function(n){i.classList.toggle("nc-int-icon-state-b")});};var intIcons=document.getElementsByClassName("js-nc-int-icon");for(var i=0;intIcons.length&gt;i;i++){initIntIcon(intIcons[i]);}</script></g></symbol></svg>